<?xml version="1.0" encoding="utf-8"?>
<!-- Generator: Adobe Illustrator 25.4.1, SVG Export Plug-In . SVG Version: 6.00 Build 0)  -->
<svg version="1.1" id="Layer_1" xmlns="http://www.w3.org/2000/svg" xmlns:xlink="http://www.w3.org/1999/xlink" x="0px" y="0px"
	 viewBox="0 0 145.1 54.8" style="enable-background:new 0 0 145.1 54.8;" xml:space="preserve">
<style type="text/css">
	.st0{enable-background:new    ;}
	.st1{fill:#2F457D;}
	.st2{fill:#9B2541;}
	.st3{fill:#AC5529;}
	.st4{fill:#1D777D;}
	.st5{fill:#A57C37;}
	.st6{fill:#873171;}
	.st7{fill:#007188;}
</style>
<g id="Layer_2_00000021083038013190053810000010049905237036633239_">
	<g id="Layer_1-2">
		<g class="st0">
			<path class="st1" d="M3.5,18.5h3.2v3.7h0.1c1.9-2.7,5.3-4.3,8.7-4.3c6.9,0,12,5,12,11.8s-5,11.8-12,11.8c-3.4,0-6.9-1.6-8.7-4.3
				H6.6v17.6H3.5V18.5z M24,29.8c0-5.2-3.5-8.9-8.5-8.9c-5,0-8.9,3.9-8.9,8.9c0,5,3.9,8.9,9,8.9C20.4,38.7,24,35,24,29.8z"/>
		</g>
		<g class="st0">
			<path class="st2" d="M33.3,35c0-5.2,3.9-7.8,14.1-7.8h1.4v-0.5c0-4.1-1.9-5.9-5.8-5.9c-2.7,0-4.9,0.9-6.9,2.6l-1.9-2.3
				c2.1-2.2,5.3-3.3,9.5-3.3c5.1,0,8.3,3.2,8.3,7.8v10.4c0,0.8,0.1,3.1,0.4,4.8h-3.1c-0.2-1-0.3-2.3-0.3-3.6H49
				c-1.9,2.9-4.3,4.2-7.9,4.2C36.6,41.6,33.3,39,33.3,35z M36.8,34.6c0,2.5,2.2,4.1,5.3,4.1c4.1,0,6.8-2.5,6.8-7.7v-1.2h-2.2
				C40.6,29.8,36.8,31.3,36.8,34.6z"/>
		</g>
		<g class="st0">
			<path class="st3" d="M75.1,18.2l-0.6,3.1c-0.4-0.2-1-0.2-1.8-0.2c-4.3,0-7,3.5-7,7.4V41h-3.2V25.4c0-3.3-0.1-4-0.2-6.9h3.1v4.2
				h0.1c1.2-3,3.8-4.8,7.2-4.8C73.6,17.9,74.3,18,75.1,18.2z"/>
		</g>
		<g class="st0">
			<path class="st4" d="M87.7,9.9c0,1.3-1.1,2.3-2.3,2.3c-1.2,0-2.3-1-2.3-2.3s1.2-2.3,2.3-2.3C86.6,7.6,87.7,8.7,87.7,9.9z M87,41
				h-3.2V18.5H87V41z"/>
		</g>
		<g class="st0">
			<path class="st5" d="M96.8,21.4v-2.9h4.8v-6.3h3.2v6.3h6.5v2.9h-6.5v13.4c0,2.4,0.8,3.8,3.3,3.8c1.1,0,2.3-0.3,3.3-0.9l0.1,2.9
				c-1.2,0.5-2.7,0.8-4.3,0.8c-3.5,0-5.6-2.2-5.6-5.8V21.4H96.8z"/>
		</g>
		<g class="st0">
			<path class="st6" d="M125.2,9.9c0,1.3-1.1,2.3-2.3,2.3c-1.2,0-2.3-1-2.3-2.3s1.2-2.3,2.3-2.3C124.1,7.6,125.2,8.7,125.2,9.9z
				 M124.4,41h-3.2V18.5h3.2V41z"/>
		</g>
		<g class="st0">
			<path class="st7" d="M141.7,9.9c0,1.3-1.1,2.3-2.3,2.3c-1.2,0-2.3-1-2.3-2.3s1.2-2.3,2.3-2.3C140.6,7.6,141.7,8.7,141.7,9.9z
				 M141,41h-3.2V18.5h3.2V41z"/>
		</g>
	</g>
</g>
</svg>
